<mxfile host="app.diagrams.net" agent="Mozilla/5.0 (Windows NT 10.0; Win64; x64) AppleWebKit/537.36 (KHTML, like Gecko) Chrome/134.0.0.0 Safari/537.36" version="26.1.3">
  <diagram name="Page-1" id="_5AuUqzZWxNgcYrrEYlw">
    <mxGraphModel dx="1891" dy="1707" grid="1" gridSize="10" guides="1" tooltips="1" connect="1" arrows="1" fold="1" page="1" pageScale="1" pageWidth="827" pageHeight="1169" math="0" shadow="0">
      <root>
        <mxCell id="0" />
        <mxCell id="1" parent="0" />
        <mxCell id="0SaFk71afXd0r_hNzxHf-6" style="edgeStyle=orthogonalEdgeStyle;rounded=0;orthogonalLoop=1;jettySize=auto;html=1;exitX=1;exitY=0.5;exitDx=0;exitDy=0;entryX=0;entryY=0.5;entryDx=0;entryDy=0;" parent="1" source="0SaFk71afXd0r_hNzxHf-1" target="0SaFk71afXd0r_hNzxHf-2" edge="1">
          <mxGeometry relative="1" as="geometry" />
        </mxCell>
        <mxCell id="0SaFk71afXd0r_hNzxHf-9" style="edgeStyle=orthogonalEdgeStyle;rounded=0;orthogonalLoop=1;jettySize=auto;html=1;exitX=0.5;exitY=1;exitDx=0;exitDy=0;entryX=0.5;entryY=0;entryDx=0;entryDy=0;" parent="1" source="0SaFk71afXd0r_hNzxHf-1" target="0SaFk71afXd0r_hNzxHf-8" edge="1">
          <mxGeometry relative="1" as="geometry" />
        </mxCell>
        <mxCell id="0SaFk71afXd0r_hNzxHf-1" value="component_match_add" style="text;whiteSpace=wrap;html=1;" parent="1" vertex="1">
          <mxGeometry x="50" y="100" width="140" height="30" as="geometry" />
        </mxCell>
        <mxCell id="0SaFk71afXd0r_hNzxHf-7" style="edgeStyle=orthogonalEdgeStyle;rounded=0;orthogonalLoop=1;jettySize=auto;html=1;exitX=1;exitY=0.5;exitDx=0;exitDy=0;entryX=0;entryY=0.5;entryDx=0;entryDy=0;" parent="1" source="0SaFk71afXd0r_hNzxHf-2" target="0SaFk71afXd0r_hNzxHf-4" edge="1">
          <mxGeometry relative="1" as="geometry" />
        </mxCell>
        <mxCell id="0SaFk71afXd0r_hNzxHf-2" value="__component_match_add" style="text;whiteSpace=wrap;html=1;" parent="1" vertex="1">
          <mxGeometry x="220" y="100" width="150" height="30" as="geometry" />
        </mxCell>
        <mxCell id="0SaFk71afXd0r_hNzxHf-4" value="        match-&gt;compare[match-&gt;num].compare = compare;&#xa;        match-&gt;compare[match-&gt;num].compare_typed = compare_typed;&#xa;        match-&gt;compare[match-&gt;num].release = release;&#xa;        match-&gt;compare[match-&gt;num].data = compare_data;&#xa;        match-&gt;compare[match-&gt;num].component = NULL;&#xa;        match-&gt;num++;" style="text;whiteSpace=wrap;html=1;" parent="1" vertex="1">
          <mxGeometry x="410" y="65" width="390" height="100" as="geometry" />
        </mxCell>
        <mxCell id="mEzJXt6X7di5_y86WOkz-12" style="edgeStyle=orthogonalEdgeStyle;rounded=0;orthogonalLoop=1;jettySize=auto;html=1;exitX=1;exitY=0.5;exitDx=0;exitDy=0;entryX=0;entryY=0.5;entryDx=0;entryDy=0;" edge="1" parent="1" source="0SaFk71afXd0r_hNzxHf-8" target="mEzJXt6X7di5_y86WOkz-10">
          <mxGeometry relative="1" as="geometry" />
        </mxCell>
        <mxCell id="mEzJXt6X7di5_y86WOkz-13" style="edgeStyle=orthogonalEdgeStyle;rounded=0;orthogonalLoop=1;jettySize=auto;html=1;exitX=1;exitY=0.5;exitDx=0;exitDy=0;entryX=0;entryY=0.5;entryDx=0;entryDy=0;" edge="1" parent="1" source="0SaFk71afXd0r_hNzxHf-8" target="0SaFk71afXd0r_hNzxHf-12">
          <mxGeometry relative="1" as="geometry" />
        </mxCell>
        <mxCell id="mEzJXt6X7di5_y86WOkz-14" style="edgeStyle=orthogonalEdgeStyle;rounded=0;orthogonalLoop=1;jettySize=auto;html=1;exitX=1;exitY=0.5;exitDx=0;exitDy=0;entryX=0;entryY=0.5;entryDx=0;entryDy=0;" edge="1" parent="1" source="0SaFk71afXd0r_hNzxHf-8" target="0SaFk71afXd0r_hNzxHf-30">
          <mxGeometry relative="1" as="geometry" />
        </mxCell>
        <mxCell id="0SaFk71afXd0r_hNzxHf-8" value="component_master_add_with_match" style="text;whiteSpace=wrap;html=1;" parent="1" vertex="1">
          <mxGeometry x="17.5" y="240" width="205" height="30" as="geometry" />
        </mxCell>
        <mxCell id="0SaFk71afXd0r_hNzxHf-10" value="aggregate driver:" style="text;html=1;align=center;verticalAlign=middle;resizable=0;points=[];autosize=1;strokeColor=none;fillColor=none;" parent="1" vertex="1">
          <mxGeometry x="-60" y="35" width="110" height="30" as="geometry" />
        </mxCell>
        <mxCell id="0SaFk71afXd0r_hNzxHf-11" value="component driver:" style="text;html=1;align=center;verticalAlign=middle;resizable=0;points=[];autosize=1;strokeColor=none;fillColor=none;" parent="1" vertex="1">
          <mxGeometry x="-60" y="-90" width="120" height="30" as="geometry" />
        </mxCell>
        <mxCell id="0SaFk71afXd0r_hNzxHf-19" style="edgeStyle=orthogonalEdgeStyle;rounded=0;orthogonalLoop=1;jettySize=auto;html=1;exitX=1;exitY=0.5;exitDx=0;exitDy=0;entryX=0;entryY=0.5;entryDx=0;entryDy=0;" parent="1" source="0SaFk71afXd0r_hNzxHf-12" target="0SaFk71afXd0r_hNzxHf-18" edge="1">
          <mxGeometry relative="1" as="geometry" />
        </mxCell>
        <mxCell id="0SaFk71afXd0r_hNzxHf-22" style="edgeStyle=orthogonalEdgeStyle;rounded=0;orthogonalLoop=1;jettySize=auto;html=1;exitX=1;exitY=0.5;exitDx=0;exitDy=0;entryX=0;entryY=0.5;entryDx=0;entryDy=0;" parent="1" source="0SaFk71afXd0r_hNzxHf-12" target="0SaFk71afXd0r_hNzxHf-21" edge="1">
          <mxGeometry relative="1" as="geometry" />
        </mxCell>
        <mxCell id="0SaFk71afXd0r_hNzxHf-12" value="try_to_bring_up_aggregate_device" style="text;whiteSpace=wrap;html=1;" parent="1" vertex="1">
          <mxGeometry x="290" y="270" width="200" height="30" as="geometry" />
        </mxCell>
        <mxCell id="0SaFk71afXd0r_hNzxHf-17" style="edgeStyle=orthogonalEdgeStyle;rounded=0;orthogonalLoop=1;jettySize=auto;html=1;exitX=1;exitY=0.5;exitDx=0;exitDy=0;entryX=0;entryY=0.5;entryDx=0;entryDy=0;" parent="1" source="0SaFk71afXd0r_hNzxHf-14" target="0SaFk71afXd0r_hNzxHf-16" edge="1">
          <mxGeometry relative="1" as="geometry">
            <Array as="points">
              <mxPoint x="200" y="-35" />
              <mxPoint x="200" y="-15" />
            </Array>
          </mxGeometry>
        </mxCell>
        <mxCell id="0SaFk71afXd0r_hNzxHf-29" style="edgeStyle=orthogonalEdgeStyle;rounded=0;orthogonalLoop=1;jettySize=auto;html=1;exitX=1;exitY=0.5;exitDx=0;exitDy=0;entryX=0;entryY=0.5;entryDx=0;entryDy=0;" parent="1" source="0SaFk71afXd0r_hNzxHf-14" target="0SaFk71afXd0r_hNzxHf-28" edge="1">
          <mxGeometry relative="1" as="geometry">
            <Array as="points">
              <mxPoint x="200" y="-35" />
              <mxPoint x="200" y="-55" />
            </Array>
          </mxGeometry>
        </mxCell>
        <mxCell id="mEzJXt6X7di5_y86WOkz-7" style="edgeStyle=orthogonalEdgeStyle;rounded=0;orthogonalLoop=1;jettySize=auto;html=1;exitX=1;exitY=0.5;exitDx=0;exitDy=0;entryX=0;entryY=0.5;entryDx=0;entryDy=0;" edge="1" parent="1" source="0SaFk71afXd0r_hNzxHf-14" target="mEzJXt6X7di5_y86WOkz-4">
          <mxGeometry relative="1" as="geometry">
            <Array as="points">
              <mxPoint x="200" y="-35" />
              <mxPoint x="200" y="-120" />
            </Array>
          </mxGeometry>
        </mxCell>
        <mxCell id="0SaFk71afXd0r_hNzxHf-14" value="component_add" style="text;whiteSpace=wrap;html=1;" parent="1" vertex="1">
          <mxGeometry x="70" y="-50" width="100" height="30" as="geometry" />
        </mxCell>
        <mxCell id="0SaFk71afXd0r_hNzxHf-33" style="edgeStyle=orthogonalEdgeStyle;rounded=0;orthogonalLoop=1;jettySize=auto;html=1;exitX=1;exitY=0.5;exitDx=0;exitDy=0;entryX=0;entryY=0.5;entryDx=0;entryDy=0;" parent="1" source="0SaFk71afXd0r_hNzxHf-16" target="0SaFk71afXd0r_hNzxHf-32" edge="1">
          <mxGeometry relative="1" as="geometry" />
        </mxCell>
        <mxCell id="0SaFk71afXd0r_hNzxHf-16" value="try_to_bring_up_masters" style="text;whiteSpace=wrap;html=1;" parent="1" vertex="1">
          <mxGeometry x="232.5" y="-30" width="140" height="30" as="geometry" />
        </mxCell>
        <mxCell id="0SaFk71afXd0r_hNzxHf-35" value="" style="edgeStyle=orthogonalEdgeStyle;rounded=0;orthogonalLoop=1;jettySize=auto;html=1;" parent="1" source="0SaFk71afXd0r_hNzxHf-18" target="0SaFk71afXd0r_hNzxHf-34" edge="1">
          <mxGeometry relative="1" as="geometry" />
        </mxCell>
        <mxCell id="0SaFk71afXd0r_hNzxHf-18" value="find_components" style="text;whiteSpace=wrap;html=1;" parent="1" vertex="1">
          <mxGeometry x="530" y="240" width="100" height="30" as="geometry" />
        </mxCell>
        <mxCell id="0SaFk71afXd0r_hNzxHf-20" value="&lt;font style=&quot;font-size: 10px;&quot; color=&quot;#999999&quot;&gt;每个component driver注册一个struct component_match_array&lt;/font&gt;" style="text;html=1;align=center;verticalAlign=middle;whiteSpace=wrap;rounded=0;" parent="1" vertex="1">
          <mxGeometry x="414" y="35" width="160" height="30" as="geometry" />
        </mxCell>
        <mxCell id="0SaFk71afXd0r_hNzxHf-39" style="edgeStyle=orthogonalEdgeStyle;rounded=0;orthogonalLoop=1;jettySize=auto;html=1;exitX=1;exitY=0.5;exitDx=0;exitDy=0;entryX=0;entryY=0.5;entryDx=0;entryDy=0;" parent="1" source="0SaFk71afXd0r_hNzxHf-21" target="0SaFk71afXd0r_hNzxHf-37" edge="1">
          <mxGeometry relative="1" as="geometry" />
        </mxCell>
        <mxCell id="0SaFk71afXd0r_hNzxHf-21" value="&lt;font color=&quot;#ff0000&quot;&gt;adev-&amp;gt;ops-&amp;gt;bind&lt;/font&gt;" style="text;whiteSpace=wrap;html=1;" parent="1" vertex="1">
          <mxGeometry x="530" y="290" width="100" height="30" as="geometry" />
        </mxCell>
        <mxCell id="0SaFk71afXd0r_hNzxHf-23" value="&lt;font style=&quot;font-size: 10px;&quot; color=&quot;#999999&quot;&gt;aggregate driver的bind回调&lt;/font&gt;" style="text;html=1;align=center;verticalAlign=middle;whiteSpace=wrap;rounded=0;" parent="1" vertex="1">
          <mxGeometry x="520" y="260" width="140" height="30" as="geometry" />
        </mxCell>
        <mxCell id="mEzJXt6X7di5_y86WOkz-16" value="" style="edgeStyle=orthogonalEdgeStyle;rounded=0;orthogonalLoop=1;jettySize=auto;html=1;" edge="1" parent="1" source="0SaFk71afXd0r_hNzxHf-24" target="mEzJXt6X7di5_y86WOkz-15">
          <mxGeometry relative="1" as="geometry" />
        </mxCell>
        <mxCell id="0SaFk71afXd0r_hNzxHf-24" value="list_for_each_entry(c, &amp;amp;component_list, node)&lt;div&gt;&lt;font color=&quot;#ff0000&quot;&gt;mc-&amp;gt;compare&lt;/font&gt;&lt;/div&gt;" style="text;whiteSpace=wrap;html=1;align=center;" parent="1" vertex="1">
          <mxGeometry x="770" y="240" width="260" height="30" as="geometry" />
        </mxCell>
        <mxCell id="0SaFk71afXd0r_hNzxHf-27" value="&lt;font style=&quot;font-size: 10px;&quot; color=&quot;#999999&quot;&gt;对每个component执行component_match_add中传入的compare回调, 填充match-&amp;gt;compare的component&lt;/font&gt;" style="text;html=1;align=center;verticalAlign=middle;whiteSpace=wrap;rounded=0;" parent="1" vertex="1">
          <mxGeometry x="745" y="210" width="310" height="30" as="geometry" />
        </mxCell>
        <mxCell id="0SaFk71afXd0r_hNzxHf-28" value="list_add_tail(&amp;component-&gt;node, &amp;component_list)" style="text;whiteSpace=wrap;html=1;" parent="1" vertex="1">
          <mxGeometry x="232.5" y="-70" width="280" height="30" as="geometry" />
        </mxCell>
        <mxCell id="0SaFk71afXd0r_hNzxHf-30" value="list_add(&amp;adev-&gt;node, &amp;aggregate_devices);" style="text;whiteSpace=wrap;html=1;" parent="1" vertex="1">
          <mxGeometry x="290" y="220" width="247.5" height="30" as="geometry" />
        </mxCell>
        <mxCell id="0SaFk71afXd0r_hNzxHf-32" value="try_to_bring_up_aggregate_device" style="text;whiteSpace=wrap;html=1;" parent="1" vertex="1">
          <mxGeometry x="400" y="-30" width="190" height="30" as="geometry" />
        </mxCell>
        <mxCell id="0SaFk71afXd0r_hNzxHf-36" value="" style="edgeStyle=orthogonalEdgeStyle;rounded=0;orthogonalLoop=1;jettySize=auto;html=1;" parent="1" source="0SaFk71afXd0r_hNzxHf-34" target="0SaFk71afXd0r_hNzxHf-24" edge="1">
          <mxGeometry relative="1" as="geometry" />
        </mxCell>
        <mxCell id="0SaFk71afXd0r_hNzxHf-34" value="find_component" style="text;whiteSpace=wrap;html=1;" parent="1" vertex="1">
          <mxGeometry x="650" y="240" width="90" height="30" as="geometry" />
        </mxCell>
        <mxCell id="0SaFk71afXd0r_hNzxHf-41" value="" style="edgeStyle=orthogonalEdgeStyle;rounded=0;orthogonalLoop=1;jettySize=auto;html=1;" parent="1" source="0SaFk71afXd0r_hNzxHf-37" target="0SaFk71afXd0r_hNzxHf-40" edge="1">
          <mxGeometry relative="1" as="geometry" />
        </mxCell>
        <mxCell id="0SaFk71afXd0r_hNzxHf-37" value="component_bind_all" style="text;whiteSpace=wrap;html=1;" parent="1" vertex="1">
          <mxGeometry x="660" y="290" width="120" height="30" as="geometry" />
        </mxCell>
        <mxCell id="0SaFk71afXd0r_hNzxHf-43" style="edgeStyle=orthogonalEdgeStyle;rounded=0;orthogonalLoop=1;jettySize=auto;html=1;exitX=1;exitY=0.5;exitDx=0;exitDy=0;entryX=0;entryY=0.5;entryDx=0;entryDy=0;" parent="1" source="0SaFk71afXd0r_hNzxHf-40" target="0SaFk71afXd0r_hNzxHf-42" edge="1">
          <mxGeometry relative="1" as="geometry" />
        </mxCell>
        <mxCell id="0SaFk71afXd0r_hNzxHf-40" value="component_bind" style="text;whiteSpace=wrap;html=1;" parent="1" vertex="1">
          <mxGeometry x="810" y="290" width="100" height="30" as="geometry" />
        </mxCell>
        <mxCell id="0SaFk71afXd0r_hNzxHf-42" value="&lt;font color=&quot;#ff0000&quot;&gt;component-&amp;gt;ops-&amp;gt;bind&lt;/font&gt;" style="text;whiteSpace=wrap;html=1;" parent="1" vertex="1">
          <mxGeometry x="940" y="290" width="130" height="30" as="geometry" />
        </mxCell>
        <mxCell id="0SaFk71afXd0r_hNzxHf-44" value="&lt;font style=&quot;font-size: 10px;&quot; color=&quot;#999999&quot;&gt;component driver的bind回调&lt;/font&gt;" style="text;html=1;align=center;verticalAlign=middle;whiteSpace=wrap;rounded=0;" parent="1" vertex="1">
          <mxGeometry x="935" y="270" width="140" height="30" as="geometry" />
        </mxCell>
        <mxCell id="mEzJXt6X7di5_y86WOkz-3" value="&lt;font style=&quot;font-size: 10px; color: rgb(153, 153, 153);&quot;&gt;vc4 drm driver此时aggregate_devices链表为空,这边不会bring up master&lt;/font&gt;" style="text;html=1;align=center;verticalAlign=middle;whiteSpace=wrap;rounded=0;" vertex="1" parent="1">
          <mxGeometry x="206.5" y="-50" width="367.5" height="30" as="geometry" />
        </mxCell>
        <mxCell id="mEzJXt6X7di5_y86WOkz-4" value="&lt;div style=&quot;background-color: rgb(245, 245, 245); font-family: Consolas, &amp;quot;Courier New&amp;quot;, monospace; font-weight: normal; line-height: 19px; white-space: pre;&quot;&gt;&lt;div style=&quot;&quot;&gt;&lt;font style=&quot;color: rgb(0, 0, 0);&quot;&gt;&lt;span&gt;&lt;div style=&quot;line-height: 19px;&quot;&gt;&lt;span&gt;component&lt;/span&gt; = &lt;span&gt;kzalloc&lt;/span&gt;(&lt;span&gt;sizeof&lt;/span&gt;(*&lt;span&gt;component&lt;/span&gt;), &lt;span&gt;GFP_KERNEL&lt;/span&gt;);&lt;/div&gt;&lt;/span&gt;&lt;/font&gt;&lt;/div&gt;&lt;div style=&quot;&quot;&gt;&lt;font style=&quot;color: rgb(0, 0, 0);&quot;&gt;&lt;span&gt;component&lt;/span&gt;&lt;span&gt;-&amp;gt;&lt;/span&gt;&lt;span&gt;ops&lt;/span&gt;&lt;span&gt; &lt;/span&gt;&lt;span&gt;=&lt;/span&gt;&lt;span&gt; &lt;/span&gt;&lt;span&gt;ops&lt;/span&gt;&lt;span&gt;;&lt;/span&gt;&lt;/font&gt;&lt;/div&gt;&lt;div style=&quot;&quot;&gt;&lt;font style=&quot;color: rgb(0, 0, 0);&quot;&gt;&lt;span&gt;component&lt;/span&gt;&lt;span&gt;-&amp;gt;&lt;/span&gt;&lt;span&gt;dev&lt;/span&gt;&lt;span&gt; &lt;/span&gt;&lt;span&gt;=&lt;/span&gt;&lt;span&gt; &lt;/span&gt;&lt;span&gt;dev&lt;/span&gt;&lt;span&gt;;&lt;/span&gt;&lt;/font&gt;&lt;/div&gt;&lt;div style=&quot;&quot;&gt;&lt;font style=&quot;color: rgb(0, 0, 0);&quot;&gt;&lt;span&gt;component&lt;/span&gt;&lt;span&gt;-&amp;gt;&lt;/span&gt;&lt;span&gt;subcomponent&lt;/span&gt;&lt;span&gt; &lt;/span&gt;&lt;span&gt;=&lt;/span&gt;&lt;span&gt; &lt;/span&gt;&lt;span&gt;subcomponent&lt;/span&gt;&lt;span&gt;;&lt;/span&gt;&lt;/font&gt;&lt;/div&gt;&lt;/div&gt;" style="text;whiteSpace=wrap;html=1;" vertex="1" parent="1">
          <mxGeometry x="232.5" y="-160" width="350" height="80" as="geometry" />
        </mxCell>
        <mxCell id="mEzJXt6X7di5_y86WOkz-8" value="&lt;font style=&quot;font-size: 10px;&quot; color=&quot;#999999&quot;&gt;注册 struct component&lt;/font&gt;" style="text;html=1;align=center;verticalAlign=middle;whiteSpace=wrap;rounded=0;" vertex="1" parent="1">
          <mxGeometry x="222.5" y="-200" width="107.5" height="30" as="geometry" />
        </mxCell>
        <mxCell id="mEzJXt6X7di5_y86WOkz-9" value="&lt;font color=&quot;#999999&quot;&gt;&lt;span style=&quot;font-size: 10px;&quot;&gt;加入component_list&lt;/span&gt;&lt;/font&gt;" style="text;html=1;align=center;verticalAlign=middle;whiteSpace=wrap;rounded=0;" vertex="1" parent="1">
          <mxGeometry x="512.5" y="-80" width="107.5" height="30" as="geometry" />
        </mxCell>
        <mxCell id="mEzJXt6X7di5_y86WOkz-10" value="&lt;div style=&quot;background-color: rgb(245, 245, 245); font-family: Consolas, &amp;quot;Courier New&amp;quot;, monospace; font-weight: normal; line-height: 19px; white-space: pre;&quot;&gt;&lt;div style=&quot;&quot;&gt;&lt;font style=&quot;color: rgb(0, 0, 0);&quot;&gt;&lt;span&gt;adev&lt;/span&gt;&lt;span&gt; &lt;/span&gt;&lt;span&gt;=&lt;/span&gt;&lt;span&gt; &lt;/span&gt;&lt;span&gt;kzalloc&lt;/span&gt;&lt;span&gt;(&lt;/span&gt;&lt;span&gt;sizeof&lt;/span&gt;&lt;span&gt;(&lt;/span&gt;&lt;span&gt;*&lt;/span&gt;&lt;span&gt;adev&lt;/span&gt;&lt;span&gt;), &lt;/span&gt;&lt;span&gt;GFP_KERNEL&lt;/span&gt;&lt;span&gt;);&lt;/span&gt;&lt;/font&gt;&lt;/div&gt;&lt;/div&gt;" style="text;whiteSpace=wrap;html=1;" vertex="1" parent="1">
          <mxGeometry x="290" y="190" width="286" height="30" as="geometry" />
        </mxCell>
        <mxCell id="mEzJXt6X7di5_y86WOkz-11" value="&lt;font color=&quot;#999999&quot;&gt;&lt;span style=&quot;font-size: 10px;&quot;&gt;注册struct aggregate_device&lt;/span&gt;&lt;/font&gt;" style="text;html=1;align=center;verticalAlign=middle;whiteSpace=wrap;rounded=0;" vertex="1" parent="1">
          <mxGeometry x="241.25" y="160" width="107.5" height="30" as="geometry" />
        </mxCell>
        <mxCell id="mEzJXt6X7di5_y86WOkz-15" value="&lt;div style=&quot;background-color: rgb(245, 245, 245); font-family: Consolas, &amp;quot;Courier New&amp;quot;, monospace; font-weight: normal; line-height: 19px; white-space: pre;&quot;&gt;&lt;div style=&quot;&quot;&gt;&lt;font style=&quot;color: rgb(0, 0, 0);&quot;&gt;match-&amp;gt;compare[i].component = c;&lt;/font&gt;&lt;/div&gt;&lt;div style=&quot;&quot;&gt;&lt;font style=&quot;color: rgb(0, 0, 0);&quot;&gt;c-&amp;gt;adev = adev;&lt;/font&gt;&lt;/div&gt;&lt;/div&gt;" style="text;whiteSpace=wrap;html=1;" vertex="1" parent="1">
          <mxGeometry x="1110" y="230" width="220" height="50" as="geometry" />
        </mxCell>
      </root>
    </mxGraphModel>
  </diagram>
</mxfile>
